<?xml version="1.0" encoding="UTF-8"?><svg id="Layer_1" xmlns="http://www.w3.org/2000/svg" viewBox="0 0 141.47 41.61"><defs><style>.cls-1{fill:#231f20;}</style></defs><path class="cls-1" d="m28.33,17.67c-.8-6.33-4.16-9.52-8.72-9.52-5.42,0-8.78,4.1-8.78,12.66s3.36,12.66,8.72,12.66c4.73,0,8.1-3.31,8.78-9.98h10.43c-1.03,11.52-8.55,18.13-19.33,18.13C7.64,41.61,0,34.09,0,20.81S7.64,0,19.44,0c10.66,0,18.24,6.44,19.33,17.67h-10.43Z"/><path class="cls-1" d="m41.15.85h21.72c8.89,0,14.02,4.28,14.02,11.12,0,4.28-2,7.75-5.87,9.52,3.65,1.25,4.79,4.05,4.9,7.98.11,4.33.29,8.21,1.71,11.29h-10.83c-1.2-2.17-1.25-5.13-1.37-11.34-.06-2.85-1.2-4.1-3.88-4.1h-9.81v15.45h-10.6V.85Zm10.6,7.7v9.35h9.75c3.08,0,5.02-1.65,5.02-4.67s-1.88-4.67-5.02-4.67h-9.75Z"/><path class="cls-1" d="m79.8.85h10.55v39.9h-10.55V.85Z"/><path class="cls-1" d="m93.71.85h21.38c8.67,0,13.57,4.22,13.57,10.77,0,3.82-1.94,6.95-5.59,8.72,4.16,1.6,6.44,4.85,6.44,9.29,0,6.73-5.07,11.12-13.85,11.12h-21.95V.85Zm10.55,7.64v8.49h9.46c2.79,0,4.62-1.43,4.62-4.22s-1.82-4.28-4.62-4.28h-9.46Zm0,15.79v8.95h9.92c3.02,0,4.9-1.48,4.9-4.45s-1.88-4.5-4.9-4.5h-9.92Z"/><path class="cls-1" d="m131.16,31.98h10.32v8.78h-10.32v-8.78Z"/></svg>