<?xml version="1.0" encoding="UTF-8"?><svg id="Layer_1" xmlns="http://www.w3.org/2000/svg" viewBox="0 0 141.73 141.73"><defs><style>.cls-1{fill:none;}.cls-2{fill:#363636;}</style></defs><path class="cls-1" d="m107.66,56.45c-11.21-11.21-28.16-13.8-42.2-6.47-.58.31-1.29.2-1.76-.27l-5.07-5.07-14.17,14.17,5.21,5.21c.46.46.57,1.16.28,1.73-6.99,13.92-4.29,30.67,6.72,41.68,6.81,6.81,15.86,10.56,25.49,10.56s18.68-3.75,25.49-10.56c6.81-6.81,10.56-15.86,10.56-25.49s-3.75-18.68-10.56-25.49Zm-41.65,29.84c-1.64,1.64-3.8,2.47-5.96,2.47s-4.32-.82-5.96-2.47c-3.29-3.29-3.29-8.64,0-11.92,3.29-3.29,8.64-3.29,11.92,0,3.29,3.29,3.29,8.64,0,11.92Zm38.32,17.88c-.29.29-.68.44-1.06.44s-.77-.15-1.06-.44c-.59-.59-.59-1.54,0-2.12,5.48-5.48,8.5-12.78,8.5-20.53s-3.02-15.05-8.5-20.53c-.59-.59-.59-1.54,0-2.12.59-.59,1.54-.59,2.12,0,6.05,6.05,9.38,14.1,9.38,22.65s-3.33,16.6-9.38,22.65Z"/><path class="cls-1" d="m60.05,74.9c-1.45,0-2.82.57-3.84,1.59-2.12,2.12-2.12,5.56,0,7.68,1.03,1.03,2.39,1.59,3.84,1.59s2.81-.57,3.84-1.59c2.12-2.12,2.12-5.56,0-7.68-1.03-1.03-2.39-1.59-3.84-1.59Z"/><path class="cls-2" d="m109.78,54.33c-11.88-11.88-29.72-14.83-44.72-7.5l-5.37-5.37c-.59-.59-1.54-.59-2.12,0l-7.46,7.46c-2.19.45-7.84,1.05-9.6-1.19-1.3-1.65-.19-4.76.96-7.09,1.5-3.01,1.6-5.46.3-7.28-2.48-3.48-9.02-2.73-9.76-2.63-.82.11-1.4.86-1.29,1.68.11.82.86,1.4,1.68,1.29,1.76-.23,5.78-.2,6.92,1.4.75,1.06.12,2.87-.54,4.2-2.24,4.51-2.46,7.96-.63,10.28,1.74,2.21,4.92,2.77,7.69,2.77.28,0,.56,0,.84-.02l-5.4,5.4c-.59.59-.59,1.54,0,2.12l5.51,5.51c-6.97,14.88-3.92,32.5,7.76,44.17,7.38,7.38,17.18,11.44,27.61,11.44s20.24-4.06,27.61-11.44c7.38-7.38,11.44-17.18,11.44-27.62s-4.06-20.24-11.44-27.61Zm-2.12,53.11c-6.81,6.81-15.86,10.56-25.49,10.56s-18.68-3.75-25.49-10.56c-11.01-11.01-13.72-27.77-6.72-41.68.29-.58.18-1.28-.28-1.73l-5.21-5.21,14.17-14.17,5.07,5.07c.46.46,1.18.57,1.76.27,14.03-7.34,30.99-4.74,42.2,6.47,6.81,6.81,10.56,15.86,10.56,25.49s-3.75,18.68-10.56,25.49Z"/><path class="cls-2" d="m104.33,58.87c-.59-.59-1.54-.59-2.12,0-.59.59-.59,1.54,0,2.12,5.48,5.48,8.5,12.78,8.5,20.53s-3.02,15.05-8.5,20.53c-.59.59-.59,1.54,0,2.12.29.29.68.44,1.06.44s.77-.15,1.06-.44c6.05-6.05,9.38-14.1,9.38-22.65s-3.33-16.6-9.38-22.65Z"/><path class="cls-2" d="m54.09,74.37c-3.29,3.29-3.29,8.64,0,11.92,1.64,1.64,3.8,2.47,5.96,2.47s4.32-.82,5.96-2.47c3.29-3.29,3.29-8.64,0-11.92-3.29-3.29-8.64-3.29-11.92,0Zm9.8,9.8c-1.03,1.03-2.39,1.59-3.84,1.59s-2.82-.57-3.84-1.59c-2.12-2.12-2.12-5.56,0-7.68,1.03-1.03,2.39-1.59,3.84-1.59s2.81.57,3.84,1.59c2.12,2.12,2.12,5.56,0,7.68Z"/><path class="cls-2" d="m35.18,30.29c.25,0,.51-.06.75-.2l4.62-2.67c.72-.41.96-1.33.55-2.05-.41-.72-1.33-.96-2.05-.55l-4.62,2.67c-.72.41-.96,1.33-.55,2.05.28.48.78.75,1.3.75Z"/><path class="cls-2" d="m27,29.45c.29.29.68.44,1.06.44s.77-.15,1.06-.44c.59-.59.59-1.54,0-2.12l-4.53-4.53c-.59-.59-1.54-.59-2.12,0-.59.59-.59,1.54,0,2.12l4.53,4.53Z"/><path class="cls-2" d="m29.49,32.3c-.19-.8-1-1.3-1.81-1.11l-6.03,1.46c-.8.19-1.3,1-1.11,1.81.17.69.78,1.15,1.46,1.15.12,0,.24-.01.35-.04l6.03-1.46c.8-.19,1.3-1,1.11-1.81Z"/><path class="cls-2" d="m31.92,28.96c.83,0,1.5-.67,1.5-1.5v-5.23c0-.83-.67-1.5-1.5-1.5s-1.5.67-1.5,1.5v5.23c0,.83.67,1.5,1.5,1.5Z"/><path class="cls-2" d="m31.41,34.27c-.72-.41-1.63-.17-2.05.55l-3.1,5.37c-.41.72-.17,1.63.55,2.05.24.14.49.2.75.2.52,0,1.02-.27,1.3-.75l3.1-5.37c.41-.72.17-1.63-.55-2.05Z"/></svg>