<?xml version="1.0" encoding="UTF-8"?><svg id="icons" xmlns="http://www.w3.org/2000/svg" viewBox="0 0 113.39 113.39"><defs><style>.cls-1{fill:none;stroke:#2e2d2c;stroke-linecap:round;stroke-linejoin:round;stroke-width:2.58px;}</style></defs><path class="cls-1" d="m81.78,82.47c-13.61,13.61-35.68,13.61-49.29,0-13.61-13.61-13.61-35.68,0-49.29,13.61-13.61,35.68-13.61,49.29,0,13.61,13.61,13.61,35.68,0,49.29Z"/><path class="cls-1" d="m73.2,41.76c8.87,8.87,8.87,23.25,0,32.13-8.87,8.87-23.25,8.87-32.13,0-8.87-8.87-8.87-23.25,0-32.13s23.25-8.87,32.13,0Z"/><path class="cls-1" d="m64.62,65.3c-4.13,4.13-10.83,4.13-14.96,0-4.13-4.13-4.13-10.83,0-14.96,4.13-4.13,10.83-4.13,14.96,0,4.13,4.13,4.13,10.83,0,14.96Z"/><line class="cls-1" x1="80.7" y1="34.25" x2="57.14" y2="57.82"/><polygon class="cls-1" points="93.6 11.27 93.6 22.16 104.48 22.16 91.59 35.05 80.7 35.05 80.7 24.17 93.6 11.27"/><line class="cls-1" x1="77.88" y1="37.07" x2="57.14" y2="57.82"/></svg>