<?xml version="1.0" encoding="UTF-8"?><svg id="Layer_1" xmlns="http://www.w3.org/2000/svg" viewBox="0 0 141.73 141.73"><defs><style>.cls-1{fill:none;}.cls-2{fill:#363636;}</style></defs><path class="cls-1" d="m43.73,75.55c-3.75,0-6.81,3.05-6.81,6.81s3.06,6.81,6.81,6.81,6.81-3.05,6.81-6.81-3.05-6.81-6.81-6.81Zm0,11.97c-2.84,0-5.16-2.31-5.16-5.16,0-.83.67-1.5,1.5-1.5s1.5.67,1.5,1.5c0,1.19.97,2.16,2.16,2.16s2.16-.97,2.16-2.16-.97-2.16-2.16-2.16c-.83,0-1.5-.67-1.5-1.5s.67-1.5,1.5-1.5c2.84,0,5.16,2.31,5.16,5.16s-2.31,5.16-5.16,5.16Z"/><rect class="cls-1" x="31.77" y="31.36" width="17.33" height="17.33"/><path class="cls-1" d="m65.36,82.61v-8.33h-6.67v14h1c3.12,0,5.67-2.54,5.67-5.67Z"/><path class="cls-1" d="m23.16,118.98h52.11v-10.58c0-.83.67-1.5,1.5-1.5h10.58V22.75H23.16v96.23ZM57.06,36.44c0-.83.67-1.5,1.5-1.5h13.76c.83,0,1.5.67,1.5,1.5v13.76c0,.83-.67,1.5-1.5,1.5h-13.76c-.83,0-1.5-.67-1.5-1.5v-13.76Zm-28.29-6.58c0-.83.67-1.5,1.5-1.5h20.33c.83,0,1.5.67,1.5,1.5v20.33c0,.83-.67,1.5-1.5,1.5h-20.33c-.83,0-1.5-.67-1.5-1.5v-20.33Zm0,35.17c0-.83.67-1.5,1.5-1.5h26.92c.83,0,1.5.67,1.5,1.5v6.25h8.17c.83,0,1.5.67,1.5,1.5v9.83c0,4.78-3.89,8.67-8.67,8.67h-1v8.42c0,.83-.67,1.5-1.5,1.5h-26.92c-.83,0-1.5-.67-1.5-1.5v-34.67Z"/><path class="cls-1" d="m55.69,89.78v-23.25h-23.92v31.67h23.92v-8.42Zm-11.96,2.4c-5.41,0-9.81-4.4-9.81-9.81s4.4-9.81,9.81-9.81,9.81,4.4,9.81,9.81-4.4,9.81-9.81,9.81Z"/><polygon class="cls-1" points="78.27 116.86 85.24 109.9 78.27 109.9 78.27 116.86"/><rect class="cls-1" x="60.06" y="37.94" width="10.76" height="10.76"/><polygon class="cls-1" points="104.79 62.34 103.46 65.35 106.12 65.35 104.79 62.34"/><polygon class="cls-1" points="107.44 68.35 102.14 68.35 99.49 74.35 110.09 74.35 107.44 68.35"/><path class="cls-1" d="m106.35,25.21c-6.74,0-12.22,5.48-12.22,12.22s5.48,12.22,12.22,12.22,12.22-5.48,12.22-12.22-5.48-12.22-12.22-12.22Zm0,19.76c-4.16,0-7.54-3.38-7.54-7.54,0-.83.67-1.5,1.5-1.5s1.5.67,1.5,1.5c0,2.5,2.04,4.54,4.54,4.54s4.54-2.04,4.54-4.54-2.04-4.54-4.54-4.54c-.83,0-1.5-.67-1.5-1.5s.67-1.5,1.5-1.5c4.16,0,7.54,3.38,7.54,7.54s-3.38,7.54-7.54,7.54Z"/><path class="cls-1" d="m98.69,116.78c0,1.21.99,2.2,2.2,2.2h7.79c1.21,0,2.2-.99,2.2-2.2v-39.26h-12.2v39.26Z"/><path class="cls-2" d="m30.27,51.7h20.33c.83,0,1.5-.67,1.5-1.5v-20.33c0-.83-.67-1.5-1.5-1.5h-20.33c-.83,0-1.5.67-1.5,1.5v20.33c0,.83.67,1.5,1.5,1.5Zm1.5-20.33h17.33v17.33h-17.33v-17.33Z"/><path class="cls-2" d="m58.56,51.7h13.76c.83,0,1.5-.67,1.5-1.5v-13.76c0-.83-.67-1.5-1.5-1.5h-13.76c-.83,0-1.5.67-1.5,1.5v13.76c0,.83.67,1.5,1.5,1.5Zm1.5-13.76h10.76v10.76h-10.76v-10.76Z"/><path class="cls-2" d="m106.35,22.21c-8.39,0-15.22,6.83-15.22,15.22s6.83,15.22,15.22,15.22,15.22-6.83,15.22-15.22-6.83-15.22-15.22-15.22Zm0,27.45c-6.74,0-12.22-5.48-12.22-12.22s5.48-12.22,12.22-12.22,12.22,5.48,12.22,12.22-5.48,12.22-12.22,12.22Z"/><path class="cls-2" d="m106.35,29.89c-.83,0-1.5.67-1.5,1.5s.67,1.5,1.5,1.5c2.5,0,4.54,2.04,4.54,4.54s-2.04,4.54-4.54,4.54-4.54-2.04-4.54-4.54c0-.83-.67-1.5-1.5-1.5s-1.5.67-1.5,1.5c0,4.16,3.38,7.54,7.54,7.54s7.54-3.38,7.54-7.54-3.38-7.54-7.54-7.54Z"/><path class="cls-2" d="m43.73,72.55c-5.41,0-9.81,4.4-9.81,9.81s4.4,9.81,9.81,9.81,9.81-4.4,9.81-9.81-4.4-9.81-9.81-9.81Zm0,16.62c-3.75,0-6.81-3.05-6.81-6.81s3.06-6.81,6.81-6.81,6.81,3.05,6.81,6.81-3.05,6.81-6.81,6.81Z"/><path class="cls-2" d="m43.73,77.2c-.83,0-1.5.67-1.5,1.5s.67,1.5,1.5,1.5c1.19,0,2.16.97,2.16,2.16s-.97,2.16-2.16,2.16-2.16-.97-2.16-2.16c0-.83-.67-1.5-1.5-1.5s-1.5.67-1.5,1.5c0,2.84,2.31,5.16,5.16,5.16s5.16-2.31,5.16-5.16-2.31-5.16-5.16-5.16Z"/><path class="cls-2" d="m88.86,19.75H21.66c-.83,0-1.5.67-1.5,1.5v99.23c0,.83.67,1.5,1.5,1.5h55.11s.01,0,.02,0c.09,0,.19,0,.28-.03.06-.01.11-.03.16-.05.04-.01.08-.02.12-.04.06-.02.11-.06.17-.09.03-.02.06-.03.09-.05.08-.06.16-.12.23-.19l12.08-12.08c.09-.09.17-.2.24-.32.01-.03.03-.05.04-.08.06-.12.1-.24.13-.37,0,0,0-.01,0-.02.02-.09.03-.18.03-.28V21.25c0-.83-.67-1.5-1.5-1.5Zm-10.58,97.11v-6.96h6.96l-6.96,6.96Zm9.08-9.96h-10.58c-.83,0-1.5.67-1.5,1.5v10.58H23.16V22.75h64.2v84.15Z"/><path class="cls-2" d="m30.27,101.2h26.92c.83,0,1.5-.67,1.5-1.5v-8.42h1c4.78,0,8.67-3.89,8.67-8.67v-9.83c0-.83-.67-1.5-1.5-1.5h-8.17v-6.25c0-.83-.67-1.5-1.5-1.5h-26.92c-.83,0-1.5.67-1.5,1.5v34.67c0,.83.67,1.5,1.5,1.5Zm28.42-26.92h6.67v8.33c0,3.12-2.54,5.67-5.67,5.67h-1v-14Zm-26.92-7.75h23.92v31.67h-23.92v-31.67Z"/><path class="cls-2" d="m113.76,75.25l-3.97-9h0s-3.63-8.23-3.63-8.23c-.24-.54-.78-.9-1.37-.9s-1.13.35-1.37.9l-3.63,8.23h0s-3.97,9-3.97,9c-.1.23-.14.48-.12.72,0,.02,0,.03,0,.05v40.76c0,2.87,2.33,5.2,5.2,5.2h7.79c2.87,0,5.2-2.33,5.2-5.2v-40.76s0-.03,0-.05c.02-.24-.02-.49-.12-.72Zm-8.97-12.91l1.33,3.01h-2.65l1.33-3.01Zm-2.65,6.01h5.3l2.65,6h-10.6l2.65-6Zm8.75,48.43c0,1.21-.99,2.2-2.2,2.2h-7.79c-1.21,0-2.2-.99-2.2-2.2v-39.26h12.2v39.26Z"/></svg>