<?xml version="1.0" encoding="UTF-8"?><svg id="icons" xmlns="http://www.w3.org/2000/svg" viewBox="0 0 113.39 113.39"><defs><style>.cls-1,.cls-2,.cls-3{fill:none;}.cls-4,.cls-5{fill:#2e2d2c;}.cls-4,.cls-2,.cls-3{stroke:#2e2d2c;stroke-width:2.58px;}.cls-4,.cls-3{stroke-miterlimit:10;}.cls-2{stroke-linecap:round;stroke-linejoin:round;}</style></defs><path class="cls-1" d="m36.1,39.07c0-12.84,10.41-23.25,23.25-23.25s23.25,10.41,23.25,23.25-10.41,23.25-23.25,23.25-23.25-10.41-23.25-23.25"/><path class="cls-3" d="m36.1,39.07c0-12.84,10.41-23.25,23.25-23.25s23.25,10.41,23.25,23.25-10.41,23.25-23.25,23.25-23.25-10.41-23.25-23.25Z"/><path class="cls-3" d="m49.36,18.07c8.3,9.22,9.99,35.62,7.02,44.06"/><path class="cls-3" d="m76.97,23.9c-4.9,15.95-19.75,27.55-37.3,27.55"/><path class="cls-3" d="m38.04,29.74c3.81-1.24,7.88-1.91,12.11-1.91,13.15,0,24.79,7.63,31.26,18.27"/><path class="cls-4" d="m53.09,47.63c0-2.29,1.86-4.15,4.15-4.15s4.15,1.86,4.15,4.15-1.86,4.15-4.15,4.15-4.15-1.86-4.15-4.15Z"/><path class="cls-4" d="m67.73,35.79c0-2.29,1.86-4.15,4.15-4.15s4.15,1.86,4.15,4.15-1.86,4.15-4.15,4.15-4.15-1.86-4.15-4.15Z"/><path class="cls-4" d="m49.36,28.48c0-2.29,1.86-4.15,4.15-4.15s4.15,1.86,4.15,4.15-1.86,4.15-4.15,4.15-4.15-1.86-4.15-4.15Z"/><path class="cls-2" d="m66.36,72.09s7.8-5.9,13.11-9.88c5.58-4.19,9.92-2.41,13.41,1.08l-26.6,25.05h-33.18"/><path class="cls-2" d="m18.92,76.92c6.54-8.2,11.72-11.33,18.17-11.33,5.4,0,8.28.64,12.88,3.73h9.88c1.59,0,6.83.71,6.83,8.43h-20.81"/><polyline class="cls-2" points="9.31 79.79 16.72 72.38 37.76 93.42 30.35 100.83"/><path class="cls-5" d="m16.4,82.14c-.76.76-.76,1.98,0,2.74.76.76,1.98.76,2.74,0s.76-1.98,0-2.74c-.76-.76-1.98-.76-2.74,0Z"/></svg>