<?xml version="1.0" encoding="UTF-8"?><svg id="icons" xmlns="http://www.w3.org/2000/svg" viewBox="0 0 113.39 113.39"><defs><style>.cls-1{fill:#2e2d2c;}.cls-2{fill:none;stroke:#2e2d2c;stroke-miterlimit:10;stroke-width:2.58px;}</style></defs><path class="cls-2" d="m93.76,56.69c0,20.98-16.59,37.99-37.07,37.99s-37.06-17.01-37.06-37.99S36.22,18.71,56.69,18.71s37.07,17.01,37.07,37.99Z"/><path class="cls-2" d="m75.23,56.69c0,20.98-8.3,37.99-18.53,37.99s-18.53-17.01-18.53-37.99,8.3-37.99,18.53-37.99,18.53,17.01,18.53,37.99Z"/><path class="cls-2" d="m84.32,31.37c-6.79,3.88-16.65,6.33-27.62,6.33s-20.85-2.45-27.63-6.33"/><path class="cls-2" d="m29.07,82.01c6.79-3.88,16.65-6.33,27.62-6.33s20.85,2.45,27.64,6.34"/><line class="cls-2" x1="19.63" y1="56.69" x2="93.76" y2="56.69"/><line class="cls-2" x1="56.69" y1="18.71" x2="56.69" y2="94.68"/><path class="cls-1" d="m44.16,56.69c0,3.4-2.68,6.15-6,6.15s-6-2.75-6-6.15,2.68-6.15,6-6.15,6,2.75,6,6.15"/><path class="cls-2" d="m44.16,56.69c0,3.4-2.68,6.15-6,6.15s-6-2.75-6-6.15,2.68-6.15,6-6.15,6,2.75,6,6.15Z"/><path class="cls-1" d="m78.2,77.42c0,3.4-2.68,6.15-6,6.15s-6-2.75-6-6.15,2.68-6.15,6-6.15,6,2.75,6,6.15"/><path class="cls-2" d="m78.2,77.42c0,3.4-2.68,6.15-6,6.15s-6-2.75-6-6.15,2.68-6.15,6-6.15,6,2.75,6,6.15Z"/><path class="cls-1" d="m62.69,37.7c0,3.4-2.68,6.15-6,6.15s-6-2.75-6-6.15,2.68-6.15,6-6.15,6,2.75,6,6.15"/><path class="cls-2" d="m62.69,37.7c0,3.4-2.68,6.15-6,6.15s-6-2.75-6-6.15,2.68-6.15,6-6.15,6,2.75,6,6.15Z"/></svg>